<svg height="512" viewBox="0 0 512 512" width="512" xmlns="http://www.w3.org/2000/svg"><g id="Flat"><rect fill="#6597eb" height="464" rx="32" width="464" x="24" y="24"/><path d="m24 88h464v-32a32 32 0 0 0 -32-32h-400a32 32 0 0 0 -32 32z" fill="#0e638b"/><circle cx="64" cy="56" fill="#e34e03" r="8"/><circle cx="104" cy="56" fill="#f3b73f" r="8"/><circle cx="144" cy="56" fill="#03999c" r="8"/><rect fill="#f3b73f" height="48" rx="24" width="160" x="176" y="112"/><path d="m232 140h-32a4 4 0 0 1 0-8h32a4 4 0 0 1 0 8z" fill="#e34e03"/><path d="m312 140h-64a4 4 0 0 1 0-8h64a4 4 0 0 1 0 8z" fill="#e34e03"/><rect fill="#f3b73f" height="128" rx="24" width="240" x="224" y="184"/><path d="m368 212h-48a4 4 0 0 1 0-8h48a4 4 0 0 1 0 8z" fill="#e34e03"/><path d="m296 236h-32a4 4 0 0 1 0-8h32a4 4 0 0 1 0 8z" fill="#e34e03"/><path d="m440 236h-120a4 4 0 0 1 0-8h120a4 4 0 0 1 0 8z" fill="#e34e03"/><path d="m336 260h-88a4 4 0 0 1 0-8h88a4 4 0 0 1 0 8z" fill="#e34e03"/><path d="m440 260h-88a4 4 0 0 1 0-8h88a4 4 0 0 1 0 8z" fill="#e34e03"/><path d="m296 284h-48a4 4 0 0 1 0-8h48a4 4 0 0 1 0 8z" fill="#e34e03"/><path d="m376 284h-56a4 4 0 0 1 0-8h56a4 4 0 0 1 0 8z" fill="#e34e03"/><path d="m440 284h-40a4 4 0 0 1 0-8h40a4 4 0 0 1 0 8z" fill="#e34e03"/><rect fill="#f3b73f" height="128" rx="24" width="240" x="224" y="336"/><g fill="#e34e03"><path d="m368 364h-48a4 4 0 0 1 0-8h48a4 4 0 0 1 0 8z"/><path d="m296 388h-32a4 4 0 0 1 0-8h32a4 4 0 0 1 0 8z"/><path d="m440 388h-56a4 4 0 0 1 0-8h56a4 4 0 0 1 0 8z"/><path d="m360 388h-40a4 4 0 0 1 0-8h40a4 4 0 0 1 0 8z"/><path d="m368 412h-120a4 4 0 0 1 0-8h120a4 4 0 0 1 0 8z"/><path d="m440 412h-56a4 4 0 0 1 0-8h56a4 4 0 0 1 0 8z"/><path d="m280 436h-32a4 4 0 0 1 0-8h32a4 4 0 0 1 0 8z"/><path d="m352 436h-48a4 4 0 0 1 0-8h48a4 4 0 0 1 0 8z"/><path d="m120 400-45.26 45.26a64.025 64.025 0 0 1 0-90.52z"/></g><path d="m165.26 445.26a64.025 64.025 0 0 1 -90.52 0l45.26-45.26z" fill="#b1cdb4"/><path d="m184 400a63.79937 63.79937 0 0 1 -18.74 45.26l-45.26-45.26v-64a63.995 63.995 0 0 1 64 64z" fill="#f57a08"/><path d="m120 336v64l-45.26-45.26a63.79937 63.79937 0 0 1 45.26-18.74z" fill="#f3b73f"/><rect fill="#f3b73f" height="16" rx="8" width="128" x="56" y="296"/><rect fill="#f3b73f" height="48" rx="8" width="16" x="64" y="232"/><rect fill="#f3b73f" height="64" rx="8" width="16" x="96" y="216"/><rect fill="#f3b73f" height="32" rx="8" width="16" x="128" y="248"/><rect fill="#f3b73f" height="72" rx="8" width="16" x="160" y="208"/></g></svg>