<?xml version="1.0" encoding="UTF-8"?>
<svg xmlns="http://www.w3.org/2000/svg" id="Layer_1" data-name="Layer 1" viewBox="0 0 512 512" width="512" height="512"><title>kid, globe, boy, geography</title><path d="M400,160H384a8,8,0,0,1-16,0H352a24,24,0,0,0,48,0Z"/><path d="M474,232H408V214.416a73.377,73.377,0,0,0,34.391-18.159C456.326,183.165,464,166.026,464,148V40a8,8,0,0,0-2.343-5.657C435.449,8.135,394.749-.532,367.84,0c-27.673.554-47.132,9.583-55.7,14.477l-19.7-13.135a8,8,0,0,0-12.282,5.087C272.593,44.245,291.065,81.152,296,90.115V148c0,30.976,20.316,57.162,48,65.338V232H286c-18.119,0-33.754,14.178-37.257,32.349A112,112,0,1,0,136,415.711v16.031C69.134,427.6,16,371.892,16,304A128.231,128.231,0,0,1,98.831,184.228l-5.663-14.965A144.234,144.234,0,0,0,0,304c0,76.718,60.305,139.608,136,143.774V496H96v16h96V496H152V447.774a142.973,142.973,0,0,0,93.65-41.868l-11.3-11.328A127.08,127.08,0,0,1,152,431.745V415.711A112.174,112.174,0,0,0,255.591,313.519l.253.051,8-40A8.03,8.03,0,0,0,264,272c0-12.785,10.28-24,22-24h34.581a55.993,55.993,0,0,0,110.839,0H474a22.028,22.028,0,0,1,21.96,20.677L450.426,392H328V352h88a8,8,0,0,0,7.353-4.849l24-56-14.706-6.3L410.725,336H296V288H280v48h-5.877A26.153,26.153,0,0,0,248,362.123v3.754A26.153,26.153,0,0,0,274.123,392H280v88a8,8,0,0,0,8,8h16v24h16V488H456v24h16V488h16a8,8,0,0,0,8-8V314.764l15.5-41.992A8,8,0,0,0,512,270,38.043,38.043,0,0,0,474,232ZM86.619,227.081l22.66,28.325L90.343,274.343A8,8,0,0,0,89.6,284.8L112,314.667V344H96V320a8,8,0,0,0-5.47-7.59L48.175,298.292A95.961,95.961,0,0,1,86.619,227.081ZM144,400a96.137,96.137,0,0,1-95.329-84.677L80,325.766V352a8,8,0,0,0,8,8h32a8,8,0,0,0,8-8V312a8,8,0,0,0-1.6-4.8l-19.837-26.449,19.094-19.094a8,8,0,0,0,.59-10.655l-25.965-32.457a95.982,95.982,0,0,1,72.559-6.116l-20,39.993a8,8,0,0,0,.755,8.378l21.033,28.045-13.789,27.577a8,8,0,0,0,2.718,10.234l24,16a8,8,0,0,0,10.094-1l27.363-27.363,13.085,8.724A96.161,96.161,0,0,1,144,400Zm95.987-94.957-11.549-7.7a8,8,0,0,0-10.094,1L190.98,325.706l-12.667-8.445,12.841-25.683a8,8,0,0,0-.755-8.378l-21.033-28.045,18.315-36.629A96.1,96.1,0,0,1,240,304C240,304.349,239.99,304.7,239.987,305.043ZM294.421,21.9l13.142,8.761a8,8,0,0,0,9.171-.207c.188-.139,19.168-13.8,51.426-14.451,22.944-.443,57.125,6.51,79.84,27.411V76.578l-77.266-28.1A8.014,8.014,0,0,0,361.759,51c-.277.345-26.917,33.068-52.566,29.851C304.825,72.5,293.456,48.087,294.421,21.9ZM312,148V97.038c.226,0,.454.02.68.02,25.826,0,48.874-22,57.746-31.663L448,93.6V148c0,27.7-25.39,52-54.335,52H362.332C334.579,200,312,176.673,312,148Zm64,132a40.068,40.068,0,0,1-39.2-32H352a8,8,0,0,0,8-8V216h32v24a8,8,0,0,0,8,8h15.2A40.068,40.068,0,0,1,376,280ZM274.123,376A10.134,10.134,0,0,1,264,365.877v-3.754A10.134,10.134,0,0,1,274.123,352H312v24ZM480,472H296V392h16v8a8,8,0,0,0,8,8H456a8,8,0,0,0,7.5-5.229L480,358.1Z"/><path d="M188.438,361.344l-24-16a8,8,0,0,0-10.094,1l-16,16a8,8,0,0,0,1.219,12.313l24,16a8,8,0,0,0,10.094-1l16-16a8,8,0,0,0-1.219-12.313ZM166.98,373.706l-10.423-6.949,4.462-4.463,10.423,6.949Z"/><circle cx="340" cy="124" r="12"/><circle cx="404" cy="124" r="12"/></svg>
