<svg id="Capa_1" enable-background="new 0 0 512 512" height="512" viewBox="0 0 512 512" width="512" xmlns="http://www.w3.org/2000/svg"><g><path d="m504.5 344.417c4.142 0 7.5-3.358 7.5-7.5v-258.903c0-9.649-7.851-17.5-17.5-17.5h-304.591c-4.142 0-7.5 3.358-7.5 7.5s3.358 7.5 7.5 7.5h304.591c1.378 0 2.5 1.122 2.5 2.5v45.527h-482v-45.527c0-1.378 1.122-2.5 2.5-2.5h137.887c4.142 0 7.5-3.358 7.5-7.5s-3.358-7.5-7.5-7.5h-137.887c-9.649 0-17.5 7.851-17.5 17.5v355.973c0 9.649 7.851 17.5 17.5 17.5h477c9.649 0 17.5-7.851 17.5-17.5v-62.547c0-4.142-3.358-7.5-7.5-7.5s-7.5 3.358-7.5 7.5v62.546c0 1.378-1.122 2.5-2.5 2.5h-477c-1.378 0-2.5-1.122-2.5-2.5v-295.445h482v198.376c0 4.142 3.358 7.5 7.5 7.5z"/><path d="m47.433 92.027c-4.142 0-7.5 3.358-7.5 7.5s3.358 7.5 7.5 7.5h.113c4.142 0 7.5-3.358 7.5-7.5s-3.358-7.5-7.5-7.5z"/><path d="m70.076 92.027c-4.142 0-7.5 3.358-7.5 7.5s3.358 7.5 7.5 7.5h.113c4.142 0 7.5-3.358 7.5-7.5s-3.358-7.5-7.5-7.5z"/><path d="m92.719 92.027c-4.142 0-7.5 3.358-7.5 7.5s3.358 7.5 7.5 7.5h.113c4.142 0 7.5-3.358 7.5-7.5s-3.358-7.5-7.5-7.5z"/><path d="m464.567 107.027c4.142 0 7.5-3.358 7.5-7.5s-3.358-7.5-7.5-7.5h-13.956c-4.142 0-7.5 3.358-7.5 7.5s3.358 7.5 7.5 7.5z"/><path d="m422.905 301.153v-17.309c0-11.958-9.729-21.687-21.687-21.687h-290.437c-11.958 0-21.687 9.729-21.687 21.687v17.309c0 11.958 9.729 21.686 21.687 21.686h122.602c4.142 0 7.5-3.358 7.5-7.5s-3.358-7.5-7.5-7.5h-122.602c-3.687 0-6.687-3-6.687-6.686v-17.309c0-3.687 3-6.687 6.687-6.687h248.719v30.681h-91.595c-4.142 0-7.5 3.358-7.5 7.5s3.358 7.5 7.5 7.5h133.313c11.959.001 21.687-9.727 21.687-21.685zm-48.405-23.995h26.719c3.687 0 6.687 3 6.687 6.687v17.309c0 3.687-3 6.686-6.687 6.686h-26.719z"/><path d="m224.794 377.5c11.958 0 21.687-9.729 21.687-21.687s-9.729-21.686-21.687-21.686h-56.588c-11.958 0-21.687 9.729-21.687 21.686 0 11.958 9.729 21.687 21.687 21.687zm-63.274-21.687c0-3.687 3-6.686 6.687-6.686h56.588c3.687 0 6.687 3 6.687 6.686 0 3.687-3 6.687-6.687 6.687h-56.588c-3.688 0-6.687-3-6.687-6.687z"/><path d="m287.206 334.127c-11.958 0-21.687 9.729-21.687 21.686 0 11.958 9.729 21.687 21.687 21.687h56.588c11.958 0 21.687-9.729 21.687-21.687s-9.729-21.686-21.687-21.686zm63.274 21.686c0 3.687-3 6.687-6.687 6.687h-56.588c-3.687 0-6.687-3-6.687-6.687s3-6.686 6.687-6.686h56.588c3.688 0 6.687 3 6.687 6.686z"/><path d="m187.312 187.538c2.161 0 4.288.321 6.323.954 3.954 1.229 8.159-.978 9.39-4.934 1.23-3.955-.979-8.159-4.934-9.39-3.479-1.082-7.105-1.631-10.779-1.631-19.99 0-36.253 16.263-36.253 36.253s16.263 36.253 36.253 36.253 36.254-16.263 36.254-36.253c0-4.142-3.358-7.5-7.5-7.5h-28.754c-4.142 0-7.5 3.358-7.5 7.5s3.358 7.5 7.5 7.5h19.888c-3.038 8.029-10.807 13.753-19.888 13.753-11.719 0-21.253-9.534-21.253-21.253s9.534-21.252 21.253-21.252z"/><path d="m225.38 226.991c0 10.51 8.55 19.06 19.06 19.06s19.06-8.55 19.06-19.06-8.55-19.06-19.06-19.06-19.06 8.55-19.06 19.06zm23.12 0c0 2.239-1.821 4.06-4.06 4.06s-4.06-1.821-4.06-4.06 1.821-4.06 4.06-4.06 4.06 1.821 4.06 4.06z"/><path d="m266.52 226.991c0 10.51 8.55 19.06 19.06 19.06s19.06-8.55 19.06-19.06-8.55-19.06-19.06-19.06-19.06 8.55-19.06 19.06zm23.12 0c0 2.239-1.821 4.06-4.06 4.06s-4.06-1.821-4.06-4.06 1.821-4.06 4.06-4.06 4.06 1.821 4.06 4.06z"/><path d="m326.719 207.931c-10.51 0-19.06 8.55-19.06 19.06s8.55 19.06 19.06 19.06 19.06-8.55 19.06-19.06-8.55-19.06-19.06-19.06zm0 23.12c-2.239 0-4.06-1.821-4.06-4.06s1.821-4.06 4.06-4.06 4.06 1.821 4.06 4.06-1.821 4.06-4.06 4.06z"/><path d="m220.481 188.077c0 4.142 3.358 7.5 7.5 7.5h95.803c-.15 2.095.569 4.241 2.171 5.843 1.464 1.464 3.384 2.197 5.303 2.197s3.839-.732 5.303-2.197l8.04-8.04c1.407-1.406 2.197-3.314 2.197-5.303s-.79-3.897-2.197-5.303l-8.04-8.039c-2.929-2.93-7.678-2.929-10.606 0-1.602 1.602-2.321 3.747-2.171 5.842h-95.804c-4.141 0-7.499 3.358-7.499 7.5z"/><path d="m46.53 405.5c-4.142 0-7.5 3.358-7.5 7.5s3.358 7.5 7.5 7.5h17.567c4.142 0 7.5-3.358 7.5-7.5s-3.358-7.5-7.5-7.5z"/><path d="m91.929 405.5c-4.142 0-7.5 3.358-7.5 7.5s3.358 7.5 7.5 7.5h17.567c4.142 0 7.5-3.358 7.5-7.5s-3.358-7.5-7.5-7.5z"/><path d="m137.328 405.5c-4.142 0-7.5 3.358-7.5 7.5s3.358 7.5 7.5 7.5h17.567c4.142 0 7.5-3.358 7.5-7.5s-3.358-7.5-7.5-7.5z"/><path d="m447.903 405.5c-4.142 0-7.5 3.358-7.5 7.5s3.358 7.5 7.5 7.5h17.567c4.142 0 7.5-3.358 7.5-7.5s-3.358-7.5-7.5-7.5z"/></g></svg>