<svg id="Capa_1" enable-background="new 0 0 512.055 512.055" height="512" viewBox="0 0 512.055 512.055" width="512" xmlns="http://www.w3.org/2000/svg"><g><g><g><g><path d="m79.409 440.257h133.163c6.616 0 11.98 5.603 11.98 12.515v39.191c0 9.996 10.664 15.958 18.626 10.413l47.219-57.916c3.936-2.741 8.56-4.204 13.291-4.204h83.959c39.699 0 71.881-33.619 71.881-75.091v-162.574c0-41.472-32.182-75.091-71.881-75.091h-308.238c-39.699 0-71.881 33.619-71.881 75.091v162.575c0 41.472 32.182 75.091 71.881 75.091z" fill="#b3dafe"/></g><g><path d="m387.646 127.5h-30c39.699 0 71.881 33.619 71.881 75.091v162.575c0 41.472-32.182 75.091-71.881 75.091h30c39.699 0 71.881-33.619 71.881-75.091v-162.575c.001-41.472-32.182-75.091-71.881-75.091z" fill="#8ac9fe"/></g></g><g><circle cx="393.772" cy="118.256" fill="#f28a97" r="110.756"/><path d="m393.772 7.5c-5.088 0-10.094.351-15 1.015 54.073 7.322 95.756 53.66 95.756 109.741s-41.683 102.419-95.756 109.741c4.906.664 9.912 1.015 15 1.015 61.169 0 110.756-49.587 110.756-110.756s-49.587-110.756-110.756-110.756z" fill="#ed7382"/><g><circle cx="393.772" cy="58.526" fill="#fef0ae" r="22.864"/><path d="m393.772 35.662c-4.561 0-8.807 1.341-12.375 3.643 6.309 4.07 10.489 11.155 10.489 19.221s-4.18 15.151-10.489 19.221c3.568 2.302 7.813 3.643 12.375 3.643 12.627 0 22.864-10.237 22.864-22.864s-10.237-22.864-22.864-22.864z" fill="#fddf80"/><path d="m416.249 178.373c0 12.414-10.063 22.477-22.477 22.477s-22.477-10.063-22.477-22.477z" fill="#fef0ae"/><path d="m392.2 178.373c0 7.989-4.172 15-10.453 18.986 3.478 2.207 7.6 3.491 12.024 3.491 12.413 0 22.477-10.063 22.477-22.477z" fill="#fddf80"/><path d="m449.415 178.373h-111.286c-3.908 0-6.184-4.415-3.916-7.598l5.866-8.233c2.268-3.183 3.487-6.994 3.487-10.903v-36.27c0-27.728 22.478-50.206 50.206-50.206 27.728 0 50.206 22.478 50.206 50.206v36.27c0 3.908 1.219 7.72 3.487 10.903l5.866 8.233c2.267 3.182-.008 7.598-3.916 7.598z" fill="#fddf80"/><path d="m453.331 170.774-5.866-8.233c-2.268-3.183-3.487-6.994-3.487-10.903v-36.27c0-27.728-22.478-50.206-50.206-50.206-5.225 0-10.263.8-15 2.281 20.401 6.379 35.206 25.422 35.206 47.925v36.27c0 3.908 1.219 7.719 3.487 10.903l5.866 8.233c2.268 3.183-.008 7.598-3.916 7.598h30c3.908.001 6.183-4.415 3.916-7.598z" fill="#f9d070"/></g></g></g><path d="m69.862 261.379h274.166c4.143 0 7.5-3.358 7.5-7.5s-3.357-7.5-7.5-7.5h-274.166c-4.143 0-7.5 3.358-7.5 7.5s3.357 7.5 7.5 7.5zm424.491-205.345c-2.183-3.521-6.807-4.605-10.326-2.423-3.521 2.182-4.605 6.805-2.424 10.326 10.091 16.279 15.425 35.063 15.425 54.32 0 56.935-46.32 103.255-103.256 103.255s-103.256-46.32-103.256-103.255c0-56.937 46.32-103.257 103.256-103.257 24.251 0 47.817 8.574 66.357 24.142 3.174 2.664 7.904 2.251 10.566-.921 2.664-3.172 2.252-7.903-.92-10.566-21.238-17.834-48.229-27.655-76.003-27.655-65.89 0-119.221 54.146-118.234 120h-196.131c-43.771 0-79.38 37.05-79.38 82.59v53.973c0 4.142 3.357 7.5 7.5 7.5s7.5-3.358 7.5-7.5v-53.973c0-37.269 28.881-67.59 64.38-67.59h197.299c8.158 57.304 57.542 101.511 117.065 101.511 21.167 0 41.05-5.595 58.256-15.377v144.036c0 37.269-28.881 67.59-64.38 67.59h-83.96c-6.027.046-14.898 2.061-19.103 6.961l-46.397 56.911c-3.073 1.231-5.953-.365-6.141-4.672v-39.19c0-11.034-8.738-20.01-19.479-20.01h-133.16c-35.499 0-64.38-30.321-64.38-67.59v-73.607c0-4.142-3.357-7.5-7.5-7.5s-7.5 3.358-7.5 7.5v73.607c0 45.54 35.609 82.59 79.38 82.59h133.16c2.47 0 4.479 2.248 4.479 5.01v39.19c0 7.575 4.084 14.414 10.659 17.848 6.596 3.445 16.131 3.212 21.285-2.689l46.492-57.029c2.489-1.528 5.307-2.331 8.204-2.331h83.96c43.771 0 79.38-37.05 79.38-82.59v-154.146c27.392-21.677 45-55.203 45-92.767.002-22.052-6.111-43.568-17.673-62.222zm-424.491 145.345h199.166c4.143 0 7.5-3.358 7.5-7.5s-3.357-7.5-7.5-7.5h-199.166c-4.143 0-7.5 3.358-7.5 7.5s3.357 7.5 7.5 7.5zm0 120h327.332c4.143 0 7.5-3.358 7.5-7.5s-3.357-7.5-7.5-7.5h-327.332c-4.143 0-7.5 3.358-7.5 7.5s3.357 7.5 7.5 7.5zm266.204-206.01v36.27c0 2.362-.725 4.627-2.095 6.551l-5.866 8.233c-2.686 3.77-3.036 8.667-.916 12.78s6.313 6.669 10.94 6.669h26.616c3.338 12.912 15.086 22.477 29.026 22.477s25.688-9.565 29.026-22.477h26.616c4.629 0 8.821-2.556 10.941-6.67s1.769-9.012-.917-12.779l-5.866-8.234c-1.37-1.923-2.095-4.188-2.095-6.55v-36.27c0-21.054-11.339-39.503-28.227-49.582.583-2.369.887-4.808.887-7.257 0-16.746-13.624-30.37-30.37-30.37-16.741 0-30.36 13.624-30.36 30.37 0 2.448.304 4.887.886 7.256-16.886 10.079-28.226 28.528-28.226 49.583zm57.706 77.981c-5.527 0-10.365-3.01-12.96-7.477h25.92c-2.595 4.466-7.433 7.477-12.96 7.477zm-.004-150.19c8.931 0 16.022 7.685 15.318 16.582-4.88-1.345-10.012-2.079-15.314-2.079s-10.433.733-15.313 2.078c-.704-8.925 6.343-16.581 15.309-16.581zm.004 29.503c23.548 0 42.706 19.158 42.706 42.706v36.27c0 5.501 1.688 10.776 4.879 15.254l2.835 3.979h-100.839l2.835-3.979c3.191-4.479 4.878-9.754 4.878-15.254v-36.27c0-23.548 19.158-42.706 42.706-42.706zm-323.91 308.716h327.332c4.143 0 7.5-3.358 7.5-7.5s-3.357-7.5-7.5-7.5h-327.332c-4.143 0-7.5 3.358-7.5 7.5s3.357 7.5 7.5 7.5z"/></g></svg>