<?xml version="1.0" standalone="no"?><svg xmlns="http://www.w3.org/2000/svg" viewBox="0 0 1440 320"><path fill="#cbc8d3" fill-opacity="1" d="M0,256L34.3,245.3C68.6,235,137,213,206,192C274.3,171,343,149,411,117.3C480,85,549,43,617,69.3C685.7,96,754,192,823,224C891.4,256,960,224,1029,181.3C1097.1,139,1166,85,1234,64C1302.9,43,1371,53,1406,58.7L1440,64L1440,320L1405.7,320C1371.4,320,1303,320,1234,320C1165.7,320,1097,320,1029,320C960,320,891,320,823,320C754.3,320,686,320,617,320C548.6,320,480,320,411,320C342.9,320,274,320,206,320C137.1,320,69,320,34,320L0,320Z"></path></svg>